<?xml version="1.0" encoding="utf-8"?>
<!-- Generator: Adobe Illustrator 22.1.0, SVG Export Plug-In . SVG Version: 6.00 Build 0)  -->
<svg version="1.1" id="beerBarrels" xmlns="http://www.w3.org/2000/svg" xmlns:xlink="http://www.w3.org/1999/xlink" x="0px"
	 y="0px" viewBox="0 0 144.2 154.5" style="enable-background:new 0 0 144.2 154.5;" xml:space="preserve">
<style type="text/css">
	.st0{fill:#FFFFFF;}
</style>
<g id="barrels">
	<path id="cBarrel" class="st0" d="M82.9,53.3h6.1c-0.3,1.2-0.6,2.3-0.9,3.5c-2,0-4,0-5.9,0C82.4,55.6,82.6,54.5,82.9,53.3z
		 M64.3,53.3c0.2,1.6,0.5,2.8,0.6,3.5c2,0,4,0,6,0v-3.5H64.3z M83.4,50.6h6.2c2.8-13.7,2.8-27.3-0.1-41h-5.3
		C85.3,17.9,86.5,32.7,83.4,50.6z M73.6,53.3v3.5c1.9,0,3.7,0,5.6,0c0.1-0.8,0.3-2,0.6-3.5H73.6z M73.6,50.6h6.6
		c1.3-9.2,2.9-25.8,0.8-41h-7.3V50.6z M88.9,7c-0.3-1.1-0.5-2.1-0.8-3.2c-1.6,0-3.3,0-4.9,0c0.2,0.7,0.4,1.8,0.6,3.2H88.9z
		 M63.1,9.7c-2.1,15.3-0.4,31.8,0.8,41h7v-41H63.1z M60.8,3.8c-1.4,0-2.8,0-4.1,0c-0.3,1.1-0.6,2.1-0.8,3.2h4.3
		C60.5,5.6,60.7,4.6,60.8,3.8z M73.6,7h6.9c-0.2-1.1-0.4-2.1-0.6-3.2c-2.1,0-4.2,0-6.3,0V7z M59.8,9.7h-4.5
		c-2.9,13.7-2.9,27.3-0.1,41h5.5C57.6,32.8,58.7,18,59.8,9.7z M70.9,7V3.8c-2.3,0-4.5,0-6.8,0c-0.2,1-0.4,2.1-0.6,3.2H70.9z
		 M55.8,53.3c0.3,1.2,0.6,2.3,0.9,3.5c1.8,0,3.5,0,5.3,0c-0.3-1.2-0.5-2.4-0.7-3.5H55.8z"/>
	<path id="lBarrel" class="st0" d="M26.3,63.7H31c-0.2,0.9-0.4,1.8-0.7,2.7c-1.5,0-3,0-4.6,0C26,65.5,26.2,64.6,26.3,63.7z
		 M12.1,63.7c0.2,1.2,0.3,2.1,0.4,2.7c1.5,0,3.1,0,4.6,0v-2.7H12.1z M26.7,61.6h4.7c2.2-10.5,2.1-20.9-0.1-31.4h-4.1
		C28.2,36.5,29.1,47.9,26.7,61.6z M19.2,63.7v2.7c1.4,0,2.9,0,4.3,0c0.1-0.6,0.3-1.5,0.4-2.7H19.2z M19.2,61.6h5
		c1-7.1,2.2-19.7,0.6-31.4h-5.6V61.6z M30.9,28.2c-0.2-0.8-0.4-1.6-0.6-2.4c-1.3,0-2.5,0-3.8,0c0.1,0.5,0.3,1.4,0.5,2.4H30.9z
		 M11.2,30.3C9.6,42,10.9,54.6,11.8,61.6h5.3V30.3H11.2z M9.5,25.8c-1.1,0-2.1,0-3.2,0c-0.2,0.8-0.4,1.6-0.6,2.4H9
		C9.2,27.2,9.3,26.4,9.5,25.8z M19.2,28.2h5.3c-0.1-0.8-0.3-1.6-0.5-2.4c-1.6,0-3.2,0-4.8,0V28.2z M8.7,30.3H5.2
		C3,40.7,3,51.2,5.2,61.6h4.2C7,48,7.8,36.6,8.7,30.3z M17.2,28.2v-2.4c-1.7,0-3.5,0-5.2,0c-0.2,0.8-0.3,1.6-0.5,2.4H17.2z
		 M5.6,63.7c0.2,0.9,0.4,1.8,0.7,2.7c1.3,0,2.7,0,4,0c-0.2-0.9-0.4-1.8-0.6-2.7H5.6z"/>
	<path id="rBarrel" class="st0" d="M133.9,63.7h4.7c-0.2,0.9-0.4,1.8-0.7,2.7c-1.5,0-3,0-4.6,0C133.6,65.5,133.8,64.6,133.9,63.7z
		 M119.7,63.7c0.2,1.2,0.3,2.1,0.4,2.7c1.5,0,3.1,0,4.6,0v-2.7H119.7z M134.3,61.6h4.7c2.2-10.5,2.1-20.9-0.1-31.4h-4.1
		C135.9,36.5,136.7,47.9,134.3,61.6z M126.8,63.7v2.7c1.4,0,2.9,0,4.3,0c0.1-0.6,0.3-1.5,0.4-2.7H126.8z M126.8,61.6h5
		c1-7.1,2.2-19.7,0.6-31.4h-5.6V61.6z M138.5,28.2c-0.2-0.8-0.4-1.6-0.6-2.4c-1.3,0-2.5,0-3.8,0c0.1,0.5,0.3,1.4,0.5,2.4H138.5z
		 M118.8,30.3c-1.6,11.7-0.3,24.4,0.6,31.4h5.3V30.3H118.8z M117.1,25.8c-1.1,0-2.1,0-3.2,0c-0.2,0.8-0.4,1.6-0.6,2.4h3.3
		C116.8,27.2,117,26.4,117.1,25.8z M126.8,28.2h5.3c-0.1-0.8-0.3-1.6-0.5-2.4c-1.6,0-3.2,0-4.8,0V28.2z M116.3,30.3h-3.5
		c-2.2,10.5-2.2,20.9-0.1,31.4h4.2C114.6,48,115.4,36.6,116.3,30.3z M124.8,28.2v-2.4c-1.7,0-3.5,0-5.2,0c-0.2,0.8-0.3,1.6-0.5,2.4
		H124.8z M113.2,63.7c0.2,0.9,0.4,1.8,0.7,2.7c1.3,0,2.7,0,4,0c-0.2-0.9-0.4-1.8-0.6-2.7H113.2z"/>
</g>
<g id="finestText">
	<g>
		<path class="st0" d="M13.8,115.6H7.4V73.5h18.1v6.4H13.8v11.5h8.6v6.4h-8.6V115.6z"/>
	</g>
	<g>
		<path class="st0" d="M36.2,115.6h-6.3V73.5h6.3V115.6z"/>
	</g>
	<g>
		<path class="st0" d="M49,73.5l8.4,28.3V73.5h6.3v42.1H57l-8.7-27v27h-6.3V73.5H49z"/>
	</g>
	<g>
		<path class="st0" d="M69.5,115.6V73.5h18.1v6.4H75.8v11.5h8.6v6.4h-8.6v11.5h11.7v6.4H69.5z"/>
	</g>
	<g>
		<path class="st0" d="M112.9,105.1c0,2.9-0.7,5.4-2.3,7.5c-1,1.4-2.5,2.4-4.4,3c-1,0.3-2.2,0.5-3.5,0.5c-2.5,0-4.5-0.6-6.2-1.8
			c-1.4-1-2.4-2.4-3.2-4.1c-0.8-1.7-1.3-3.7-1.4-6l6-0.4c0.3,2.5,0.9,4.2,1.9,5.3c0.8,0.8,1.6,1.2,2.6,1.2c1.4,0,2.5-0.7,3.3-2.1
			c0.4-0.6,0.6-1.6,0.6-2.8c0-1.7-0.8-3.5-2.4-5.2c-1.3-1.2-3.1-3-5.6-5.3c-2.1-2-3.6-3.9-4.5-5.5c-0.9-1.8-1.4-3.8-1.4-5.9
			c0-3.8,1.3-6.7,3.9-8.7c1.6-1.2,3.6-1.8,5.9-1.8c2.3,0,4.2,0.5,5.8,1.5c1.3,0.8,2.3,1.9,3,3.3c0.8,1.4,1.2,3,1.4,4.9l-6.1,1.1
			c-0.2-1.7-0.7-3.1-1.5-4c-0.6-0.7-1.4-1-2.5-1c-1.2,0-2,0.5-2.7,1.5c-0.5,0.8-0.7,1.9-0.7,3.1c0,1.9,0.8,3.9,2.5,5.9
			c0.6,0.8,1.6,1.7,2.8,2.7c1.5,1.2,2.5,2.1,2.9,2.6c1.6,1.6,2.8,3.1,3.6,4.6c0.4,0.7,0.7,1.4,1,2
			C112.6,102.6,112.9,103.9,112.9,105.1z"/>
	</g>
	<g>
		<path class="st0" d="M124,79.9h-6.8v-6.4h19.8v6.4h-6.7v35.7H124V79.9z"/>
	</g>
</g>
<g id="beerText">
	<g>
		<path class="st0" d="M41.6,149.7v-26.3h5.9c1.6,0,3,0.4,4.2,1.2c1.1,0.7,1.8,1.8,2.3,3.2c0.3,0.8,0.4,1.7,0.4,2.8
			c0,1.8-0.5,3.2-1.4,4.2c-0.4,0.4-0.9,0.8-1.4,1c0.9,0.3,1.6,1,2.2,2c0.4,0.7,0.7,1.5,0.9,2.6c0.1,0.5,0.1,1.2,0.1,1.8
			c0,1.7-0.3,3.1-0.9,4.2c-0.5,0.9-1.2,1.6-2.1,2.2c-1,0.6-2,0.9-3,0.9H41.6z M45.8,134.2h1.7c1.2,0,2.1-0.6,2.5-1.8
			c0.2-0.4,0.2-1,0.2-1.7c0-1.1-0.3-1.9-0.8-2.5c-0.5-0.5-1.1-0.8-1.9-0.8h-1.7V134.2z M45.8,145.8h1.7c1.3,0,2.3-0.7,2.8-2.1
			c0.2-0.5,0.3-1,0.3-1.6c0-1.5-0.3-2.5-0.8-3.2c-0.5-0.6-1.2-0.9-2.2-0.9h-1.7V145.8z"/>
	</g>
	<g>
		<path class="st0" d="M58.3,149.7v-26.3h11.3v4h-7.3v7.2h5.3v4h-5.3v7.2h7.3v4H58.3z"/>
	</g>
	<g>
		<path class="st0" d="M72.3,149.7v-26.3h11.3v4h-7.3v7.2h5.3v4h-5.3v7.2h7.3v4H72.3z"/>
	</g>
	<g>
		<path class="st0" d="M92.5,123.5c2.2,0,3.8,0.6,4.9,1.8c0.9,1.1,1.4,2.5,1.4,4.4v3.8c0,1.9-0.7,3.4-2.1,4.7l2.9,11.5h-4.3
			l-2.4-9.9c-0.1,0-0.2,0-0.4,0h-2.3v9.9h-4v-26.2H92.5z M94.9,129.8c0-1.5-0.8-2.3-2.3-2.3h-2.4v8.4h2.4c0.6,0,1.2-0.2,1.6-0.7
			c0.4-0.4,0.7-1,0.7-1.6V129.8z"/>
	</g>
</g>
<path id="swirls" class="st0" d="M33.9,150.1c-0.4,0-0.8,0-1.2,0c-1.8-0.2-4.5-1.2-6.8-3.5c-1.2-1.1-2.3-2.6-3.2-4.2
	c-0.9-1.6-1.6-3.5-1.8-5.5c1,0.2,2.1,0.3,3.3,0.2c1.3-0.1,2.7-0.5,4-1.4c0.6-0.5,1.2-1.1,1.6-1.8c0.4-0.7,0.7-1.5,0.8-2.3
	c0.2-1.6,0-3.2-0.7-4.6c-0.4-0.7-0.8-1.4-1.5-2c-0.7-0.6-1.5-1.1-2.6-1.3c-1-0.2-2.1,0-2.9,0.4c-0.8,0.4-1.5,0.9-2,1.5
	c-0.6,0.6-0.9,1.2-1.4,1.9c-0.2,0.3-0.3,0.7-0.5,1c-0.2,0.3-0.3,0.7-0.4,1c-0.4,1.4-0.7,2.7-0.8,4.1c-1.7-0.6-3.2-1.4-4.5-2.3
	c-1.3-1-2.3-2-3-3.1c-0.6-1.1-1-2.2-1.1-3.1c-0.1-0.9,0-1.7,0.1-2.2c0.1-0.5,0.1-0.8,0.1-0.8s-0.1,0.2-0.3,0.7
	c-0.2,0.5-0.4,1.2-0.4,2.2c-0.1,1,0.1,2.2,0.7,3.6c0.6,1.3,1.5,2.7,2.9,3.9c1.3,1.2,3,2.4,4.9,3.2c0.2,0.1,0.4,0.2,0.6,0.3
	c0,0.4,0.1,0.8,0.1,1.2c0.4,2.5,1.5,4.6,2.7,6.4c1.2,1.8,2.6,3.2,4,4.3c2.8,2.2,5.9,2.9,7.8,2.8c0.5-0.1,0.9-0.1,1.3-0.2
	c0.4-0.1,0.7-0.2,0.9-0.3c0.5-0.2,0.7-0.3,0.7-0.3s-0.3,0-0.8,0.1C34.6,150.1,34.3,150.2,33.9,150.1z M21.7,130.5
	c0.1-0.3,0.2-0.5,0.3-0.7l0.3-0.7c0.3-0.4,0.5-0.9,0.9-1.2c0.3-0.3,0.7-0.7,1-0.8c0.3-0.2,0.6-0.2,0.9-0.2c0.5,0.1,1.2,0.6,1.7,1.5
	c0.4,0.8,0.6,1.8,0.5,2.7c-0.1,0.4-0.2,0.8-0.4,1.2c-0.2,0.4-0.4,0.7-0.7,0.9c-0.6,0.5-1.5,0.8-2.4,1c-1,0.2-2,0.1-3,0
	C21,133,21.3,131.7,21.7,130.5z M131.1,122.8c-0.2-0.5-0.3-0.7-0.3-0.7s0,0.3,0.1,0.8c0.1,0.5,0.1,1.2,0.1,2.2
	c-0.1,0.9-0.4,2-1.1,3.1c-0.7,1.1-1.7,2.2-3,3.1c-1.2,0.9-2.8,1.7-4.5,2.3c-0.1-1.3-0.3-2.7-0.8-4.1c-0.1-0.3-0.2-0.7-0.4-1
	c-0.1-0.3-0.3-0.7-0.5-1c-0.4-0.6-0.8-1.3-1.4-1.9c-0.5-0.6-1.2-1.1-2-1.5c-0.8-0.4-1.9-0.6-2.9-0.4c-1,0.2-1.9,0.7-2.6,1.3
	c-0.7,0.6-1.1,1.3-1.5,2c-0.7,1.4-1,3-0.7,4.6c0.1,0.8,0.4,1.6,0.8,2.3c0.4,0.7,1,1.3,1.6,1.8c1.3,0.9,2.7,1.3,4,1.4
	c1.1,0.1,2.2,0,3.3-0.2c-0.2,2-0.9,3.9-1.8,5.5c-0.9,1.7-2,3.1-3.2,4.2c-2.3,2.3-4.9,3.3-6.8,3.5c-0.5,0-0.9,0-1.2,0
	c-0.4,0-0.7-0.1-0.9-0.1c-0.5-0.1-0.8-0.1-0.8-0.1s0.3,0.1,0.7,0.3c0.2,0.1,0.5,0.2,0.9,0.3c0.4,0.1,0.8,0.1,1.3,0.2
	c2,0.1,5-0.5,7.8-2.8c1.4-1.1,2.8-2.5,4-4.3c1.2-1.8,2.2-3.9,2.7-6.4c0.1-0.4,0.1-0.8,0.1-1.2c0.2-0.1,0.4-0.2,0.6-0.3
	c1.9-0.9,3.6-2,4.9-3.2c1.3-1.2,2.3-2.6,2.9-3.9c0.5-1.3,0.7-2.6,0.7-3.6C131.5,124,131.3,123.2,131.1,122.8z M116.6,134.3
	c-0.9-0.1-1.8-0.5-2.4-1c-0.3-0.3-0.5-0.6-0.7-0.9c-0.2-0.4-0.3-0.8-0.4-1.2c-0.1-0.9,0.1-1.9,0.5-2.7c0.4-0.8,1.1-1.4,1.7-1.5
	c0.3,0,0.6,0,0.9,0.2c0.3,0.1,0.7,0.5,1,0.8c0.4,0.3,0.6,0.8,0.9,1.2l0.3,0.7c0.1,0.2,0.2,0.5,0.3,0.7c0.4,1.2,0.7,2.5,0.8,3.8
	C118.6,134.4,117.6,134.5,116.6,134.3z"/>
</svg>
