<?xml version="1.0" encoding="utf-8"?>
<svg version="1.1" id="beerGraphic" xmlns="http://www.w3.org/2000/svg" xmlns:xlink="http://www.w3.org/1999/xlink" x="0px"
	 y="0px" viewBox="0 0 180.3 233.8" style="enable-background:new 0 0 180.3 233.8;" xml:space="preserve">
<style type="text/css">
	.st0{fill:#FFFFFF;}
	#beerGraphic { cursor: pointer; }
</style>
<path id="bottle" class="st0" d="M97.5,233.8c-1.9,0-3.9,0-6-0.1c-2,0.1-4,0.1-5.9,0.1c-4.6,0-9.6,0.2-13.9-1.3
	c-7.3-2.4-4.1-13.9-2.4-19.4c1.1-3.6,2-6.9,1.7-11.3c-0.1-1.4-0.7-5-1.6-10c-3.7-21.8-11.3-67.1-5.5-87.6l0-0.1
	c0.2-0.5,4.3-11.2,19.5-12.1c1.3-0.1,4.4-0.1,7.6-0.1l0.5,0l0.5,0c3.2,0,6.3,0.1,7.6,0.1c15.2,0.9,19.4,11.6,19.5,12.1l0,0.1
	c5.8,20.5-1.8,65.8-5.5,87.6c-0.8,5-1.4,8.6-1.6,10c-0.4,4.4,0.6,7.8,1.7,11.3c0.7,2.4,1.5,4.9,1.9,8c0.6,4.6,0.5,8.7-3.9,11.3
	C111.3,232.8,109.4,233.8,97.5,233.8z M91.5,230.8c2.1,0.1,4.1,0.1,6,0.1c4.5,0,12.2,1.3,15-3.5c2.1-3.7-0.3-9.8-1.4-13.4
	c-1.1-3.7-2.2-7.4-1.8-12.4c0.1-1.6,0.7-5.2,1.6-10.3c3.3-19.9,11.1-66.3,5.6-86.3c-0.3-0.8-4.1-9.4-17-10.2
	c-1.2-0.1-4.3-0.1-7.5-0.1h-0.5h-0.5c-3.2,0-6.2,0.1-7.5,0.1c-12.9,0.8-16.7,9.3-17,10.2c-5.6,20,2.2,66.4,5.5,86.3
	c0.9,5.1,1.5,8.7,1.6,10.3c0.4,5-0.7,8.7-1.8,12.4c-1.2,4-4,11.6-0.2,15.1c3,2.7,10.1,1.8,13.8,1.8
	C87.5,230.9,89.5,230.9,91.5,230.8z M109.9,213.6c0,0.2-0.2,1.2-0.3,1.5c-0.2,0.6-0.6,1.3-1.2,2c-0.7,0.6-1.6,1.2-2.7,1.6
	c-2.2,0.8-5.2,0.8-8.4,0.5c-3.2-0.3-6.6-1.3-10.4-1.9c-3.8-0.6-7.5-1-10.9-0.2c-1.7,0.4-3.3,1.2-4.3,2.3l-0.4,0.4
	c-0.1,0.1-0.2,0.3-0.3,0.4c-0.2,0.3-0.4,0.6-0.6,0.9c-0.3,0.7-0.5,1.3-0.6,1.9c-0.4,2.5,0.1,4.5,0.9,5.7c0.2,0.3,0.4,0.5,0.6,0.7
	c0.2,0.2,0.4,0.3,0.5,0.4c0.3,0.2,0.5,0.2,0.5,0.2c0.1,0-0.8-0.3-1.4-1.5c-0.6-1.2-0.9-3.1-0.3-5.4c0.1-0.6,0.3-1.1,0.6-1.6
	c0.1-0.3,0.3-0.5,0.5-0.7l0.3-0.4l0.4-0.3c1-0.9,2.3-1.5,3.8-1.8c3-0.6,6.6-0.2,10.3,0.4c1.8,0.3,3.6,0.7,5.4,1
	c1.7,0.3,3.5,0.6,5.2,0.7c3.3,0.2,6.5-0.1,8.8-1.1c1.2-0.5,2.1-1.3,2.8-2.1c0.6-0.8,0.9-1.6,1-2.3
	C109.9,214.8,110,213.8,109.9,213.6c0.1-0.3,0.1-0.5,0.1-0.5S110,213.2,109.9,213.6z M77.3,119.5c0-1.7-1.3-3.1-2.9-3.1
	c-1.6,0-2.9,1.4-2.9,3.1c0,1.7,1.3,3.1,2.9,3.1C76,122.6,77.3,121.2,77.3,119.5z M73,139.2c-0.5,0-1,0.5-1,1.1c0,0.6,0.4,1.1,1,1.1
	c0.5,0,1-0.5,1-1.1C74,139.6,73.5,139.2,73,139.2z M77,130.9c-0.9,0-1.7,0.8-1.7,1.8c0,1,0.8,1.8,1.7,1.8c0.9,0,1.7-0.8,1.7-1.8
	C78.7,131.7,77.9,130.9,77,130.9z M111,116.8L111,116.8c-0.1-0.5-3.1-9.1-13.8-9.8c-0.9-0.1-3.1-0.1-5.4-0.1h-0.3h-0.4
	c-2.3,0-4.5,0-5.4,0.1c-6.5,0.5-10.7,3.8-13,6.5c-0.4,0.4-1.8,2.7-2.1,3.7c-0.4,1.2-0.8,2.5-0.9,3.1c-0.2,0.9-0.3,1.9-0.4,2.9
	c-0.2,1.3-0.4,2.8-0.4,4.5c-0.1,1.2-0.1,2.6,0,3.9c0,0.8,0,1.7,0.1,2.5c0,1.9,0.2,4,0.4,6.2c0.5,4.8,1.5,9.9,2.7,15.2
	c1,5.3,2.1,10.3,2.7,14.9c0.8,4.6,1.3,8.8,1.9,12.3c0.5,3.5,1,6.4,1.3,8.3c0.3,2,0.5,3.1,0.5,3.1s0-1.1-0.1-3.1
	c-0.1-2-0.2-4.9-0.4-8.4c-0.2-3.6-0.5-7.8-1-12.5c-0.4-4.7-1.4-9.9-2.4-15.2c-0.5-2.8-1.9-6.8-0.9-9.6c1.1-3.3,12.5-1.7,15.1-1.6
	c6.5,0.2,13.1,0.3,19.6,0.2c0.4,0,4.7,0.2,4.8-0.4C113.4,141.6,115.9,126.4,111,116.8z M70.2,119.5c0-2.6,1.9-4.6,4.3-4.6
	c2.4,0,4.3,2.1,4.3,4.6c0,2.6-1.9,4.6-4.3,4.6C72.1,124.1,70.2,122.1,70.2,119.5z M73,141.8c-0.8,0-1.5-0.7-1.5-1.6
	c0-0.9,0.7-1.6,1.5-1.6c0.8,0,1.5,0.7,1.5,1.6C74.5,141.1,73.8,141.8,73,141.8z M77,135.5c-1.4,0-2.5-1.2-2.5-2.7
	c0-1.5,1.1-2.7,2.5-2.7c1.4,0,2.5,1.2,2.5,2.7C79.5,134.2,78.4,135.5,77,135.5z"/>
<path id="rGrain" class="st0" d="M146.2,117.3c1.7-0.2,3.3,0.1,4.5,0.2c1.2,0.1,1.9,0,1.9,0c0-0.1-0.5,1.7-1.5,3.2
	c-1,1.5-2.6,2.8-4.3,2.9c-1.7,0.1-3.3-0.4-4.4-0.6c-1.1-0.3-1.8-0.3-1.8-0.3c0,0,0.7-1.5,1.7-2.8
	C143.1,118.6,144.5,117.5,146.2,117.3z M137.4,127.6c-1,1.3-1.7,2.8-1.7,2.8c0,0,0.7,0.1,1.8,0.3c1.1,0.2,2.7,0.7,4.4,0.6
	c1.7-0.1,3.3-1.4,4.3-2.9c1-1.5,1.5-3.2,1.5-3.2c0,0-0.7,0.1-1.9,0c-1.2-0.1-2.8-0.4-4.5-0.2C139.8,125.1,138.5,126.2,137.4,127.6z
	 M132.2,134.8c-1,1.3-1.7,2.8-1.7,2.8c0,0,0.7,0.1,1.8,0.3c1.1,0.2,2.7,0.7,4.4,0.6c1.7-0.1,3.3-1.4,4.3-2.9c1-1.5,1.5-3.2,1.5-3.2
	c0,0-0.7,0.1-1.9,0c-1.2-0.1-2.8-0.4-4.5-0.2C134.6,132.4,133.2,133.5,132.2,134.8z M147.3,112.2c-0.8,1.4-1.3,3-1.3,2.9
	c0,0,0.7,0,1.8,0.1c1.1,0.1,2.8,0.4,4.5,0.1c1.7-0.3,3.1-1.7,3.9-3.4c0.9-1.6,1.1-3.4,1.1-3.3c0,0-0.7,0.2-1.9,0.2
	c-1.2,0.1-2.8-0.1-4.5,0.3C149.4,109.5,148.1,110.8,147.3,112.2z M160.4,102.7c0.7-1.7,0.7-3.5,0.7-3.4c0,0-0.7,0.2-1.8,0.4
	c-1.1,0.2-2.8,0.3-4.4,0.8c-1.6,0.5-2.7,1.9-3.4,3.5c-0.7,1.5-1,3.1-1,3.1c0,0,0.7-0.1,1.8-0.1c1.1,0,2.8,0.1,4.5-0.4
	C158.6,106,159.8,104.5,160.4,102.7z M140,117.4c0.5,1,0.6,1.7,0.7,1.7c0,0,1.4-0.9,2.4-2.2c1-1.3,1.7-3,1.2-4.6
	c-0.5-1.6-1.5-2.9-2.1-3.8c-0.6-0.9-0.9-1.5-0.9-1.5c0,0-1.1,0.9-1.9,2.1c-0.9,1.2-1.4,2.7-1,4.3C138.7,115,139.5,116.4,140,117.4z
	 M134.7,124.4c0.5,1,0.6,1.7,0.7,1.7c0,0,1.4-0.9,2.4-2.2c1-1.3,1.7-3,1.2-4.6c-0.5-1.6-1.5-2.9-2.1-3.8c-0.6-0.9-0.9-1.5-0.9-1.5
	c0,0-1.1,0.9-1.9,2.1c-0.9,1.2-1.4,2.7-1,4.3C133.4,122,134.3,123.4,134.7,124.4z M130.4,131.9c0.5,1,0.6,1.7,0.7,1.7
	c0,0,1.4-0.9,2.4-2.2c1-1.3,1.7-3,1.2-4.6c-0.5-1.6-1.5-2.9-2.1-3.8c-0.6-0.9-0.9-1.5-0.9-1.5c0,0-1.1,0.9-1.9,2.1
	c-0.9,1.2-1.4,2.7-1,4.3C129.1,129.5,129.9,130.9,130.4,131.9z M144.9,109.8c0.6,1,0.8,1.6,0.9,1.6c0,0,1.2-1,2.1-2.4
	c0.9-1.4,1.3-3.2,0.6-4.7c-0.7-1.5-1.8-2.7-2.5-3.6c-0.7-0.9-1.1-1.4-1.1-1.4c0,0-1,1-1.7,2.3c-0.7,1.3-1.1,2.9-0.4,4.4
	C143.3,107.6,144.3,108.9,144.9,109.8z M150,103.2c0,0,1.1-1.1,1.8-2.6c0.7-1.5,0.9-3.3,0.1-4.7c-0.8-1.4-2.1-2.5-2.9-3.2
	c-0.8-0.8-1.2-1.3-1.3-1.3c0,0-0.9,1.2-1.4,2.5c-0.6,1.4-0.7,3,0.1,4.4c0.8,1.4,1.9,2.6,2.6,3.5C149.7,102.6,150,103.3,150,103.2z
	 M153.4,98.5c0,0,1.7-0.3,3.1-1.1c1.5-0.8,2.8-2.2,3-4c0.2-1.7-0.3-3.4-0.5-4.5c-0.2-1.2-0.3-1.9-0.3-1.9c0,0-1.5,0.4-2.7,1.3
	c-1.3,0.8-2.4,2.1-2.6,3.8c-0.2,1.7,0,3.4,0.1,4.6C153.5,97.8,153.4,98.5,153.4,98.5z"/>
<path id="lGrain_1_" class="st0" d="M36.1,126.2c-1.7-0.1-3.3-1.3-4.4-2.8c-1.1-1.5-1.6-3.2-1.6-3.2c0,0,0.7,0.1,1.9-0.1
	c1.2-0.1,2.8-0.4,4.5-0.3c1.7,0.1,3.1,1.2,4.2,2.5c1,1.3,1.7,2.8,1.7,2.8c0,0-0.7,0.1-1.8,0.4C39.5,125.7,37.9,126.3,36.1,126.2z
	 M45.4,132.9c1.1-0.3,1.8-0.3,1.8-0.4c0,0-0.7-1.5-1.7-2.8c-1-1.3-2.5-2.4-4.2-2.5c-1.7-0.1-3.3,0.2-4.5,0.3c-1.2,0.1-1.9,0-1.9,0.1
	c0-0.1,0.5,1.7,1.6,3.1c1.1,1.5,2.6,2.7,4.4,2.8C42.8,133.7,44.3,133.2,45.4,132.9z M46.8,134.4c-1.7-0.1-3.3,0.2-4.5,0.3
	c-1.2,0.1-1.9,0-1.9,0.1c0-0.1,0.5,1.7,1.6,3.1c1.1,1.5,2.6,2.7,4.4,2.8c1.7,0.1,3.3-0.5,4.4-0.7c1.1-0.3,1.8-0.3,1.8-0.4
	c0,0-0.7-1.5-1.7-2.8C49.9,135.7,48.5,134.6,46.8,134.4z M34.9,117.8c1.1-0.2,1.8-0.1,1.8-0.2c0,0-0.5-1.5-1.4-2.9
	c-0.9-1.4-2.2-2.6-3.8-3c-1.7-0.3-3.3-0.2-4.5-0.2c-1.2,0-1.9-0.2-1.9-0.1c0,0,0.3,1.7,1.2,3.3c0.9,1.6,2.3,3,4,3.3
	C32.1,118.3,33.7,117.9,34.9,117.8z M30,109.6c1.2,0,1.8,0.1,1.8,0c0,0-0.3-1.6-1-3c-0.7-1.5-1.8-2.9-3.5-3.4
	c-1.6-0.5-3.3-0.5-4.4-0.7c-1.2-0.1-1.8-0.4-1.8-0.3c0,0,0.1,1.7,0.8,3.4c0.7,1.7,1.9,3.2,3.6,3.7C27.2,109.7,28.9,109.6,30,109.6z
	 M39.7,119.4c1,1.3,2.5,2.1,2.4,2.1c0,0,0.2-0.7,0.6-1.7c0.4-1,1.2-2.5,1.6-4c0.4-1.6-0.2-3.1-1.1-4.3c-0.8-1.2-2-2.1-2-2.1
	c0,0-0.3,0.6-0.9,1.5c-0.6,1-1.5,2.3-2,3.9C38,116.4,38.6,118.1,39.7,119.4z M45.1,126.2c1,1.3,2.5,2.1,2.4,2.1c0,0,0.2-0.7,0.6-1.7
	c0.4-1,1.2-2.5,1.6-4c0.4-1.6-0.2-3.1-1.1-4.3c-0.8-1.2-2-2.1-2-2.1c0,0-0.3,0.6-0.9,1.6c-0.6,1-1.5,2.3-2,3.9
	C43.4,123.2,44,124.9,45.1,126.2z M53.3,125.7c-0.8-1.2-2-2.1-2-2.1c0,0-0.3,0.6-0.9,1.6c-0.6,1-1.5,2.3-2,3.9
	c-0.5,1.6,0.2,3.3,1.3,4.6c1,1.3,2.5,2.1,2.4,2.1c0,0,0.2-0.7,0.6-1.7c0.4-1,1.2-2.5,1.6-4C54.7,128.4,54.1,126.9,53.3,125.7z
	 M34.7,111.5c0.9,1.4,2.2,2.4,2.1,2.4c0,0,0.2-0.6,0.8-1.6c0.6-1,1.5-2.3,2.1-3.8c0.6-1.5,0.2-3.1-0.5-4.4c-0.7-1.3-1.8-2.3-1.7-2.3
	c0,0-0.3,0.6-1.1,1.4c-0.7,0.9-1.8,2.1-2.4,3.6C33.3,108.4,33.8,110.1,34.7,111.5z M32.4,105.8c0,0,0.3-0.6,1-1.5
	c0.7-0.9,1.8-2.1,2.5-3.5c0.7-1.4,0.5-3,0-4.4c-0.6-1.3-1.5-2.5-1.5-2.5c0,0-0.4,0.5-1.2,1.3c-0.8,0.8-2,1.9-2.8,3.3
	c-0.8,1.4-0.6,3.2,0.2,4.7C31.2,104.7,32.4,105.8,32.4,105.8z M25.7,100c1.5,0.8,3.2,1.1,3.2,1.1c0,0-0.1-0.7-0.1-1.9
	c0-1.2,0.2-2.9,0-4.6c-0.3-1.7-1.4-2.9-2.7-3.7c-1.3-0.8-2.8-1.2-2.8-1.2c0,0,0,0.7-0.3,1.9c-0.2,1.2-0.6,2.8-0.4,4.6
	C22.8,97.9,24.1,99.2,25.7,100z"/>
<path id="bgShell" class="st0" d="M180.3,91.9c0-0.6,0-1.1,0-1.7c0-0.6,0-1.1,0-1.7c-7.7-4.4-8.1-9-1.5-14.7
	c-0.2-1.1-0.4-2.1-0.6-3.2c-8.4-2.7-9.7-6.9-4.2-13.8c-0.4-1-0.8-1.9-1.2-2.9c-8.8-0.9-10.9-4.7-6.7-12.5c-0.5-0.9-1.1-1.7-1.7-2.5
	c-8.9,0.9-11.6-2.5-9-11c-0.7-0.7-1.4-1.4-2.1-2.1c-8.6,2.7-12-0.2-11-9.2c-0.8-0.5-1.5-1.1-2.3-1.6c-8.1,4.3-12,2.2-12.8-7
	c-0.8-0.4-1.7-0.7-2.5-1.1c-7.3,5.9-11.6,4.5-14.3-4.5c-0.9-0.2-1.7-0.4-2.6-0.6c-6.1,7.4-10.9,6.9-15.5-1.7c-0.7,0-1.3-0.1-2-0.1
	c-0.2,0-0.4,0-0.6,0c-4.7,8.7-9.5,9.1-15.7,1.5c-0.8,0.1-1.5,0.3-2.3,0.4c-2.7,9.6-7.2,11-14.9,4.5c-0.7,0.3-1.3,0.5-2,0.8
	c-0.7,10.1-4.8,12.3-13.6,7.3c-0.6,0.4-1.1,0.7-1.7,1.1c1.4,10.2-2.2,13.1-12,9.8c-0.5,0.4-0.9,0.9-1.4,1.3c3.4,9.8,0.4,13.4-9.9,12
	c-0.3,0.5-0.7,1-1,1.5c5.2,9.1,2.9,13.2-7.6,13.8c-0.2,0.5-0.5,1.1-0.7,1.6c6.9,8,5.5,12.6-4.8,15.4c-0.1,0.6-0.2,1.2-0.4,1.7
	c8.4,6.6,7.9,11.6-1.7,16.5c0,0.3,0,0.6,0,0.9c0,0.3,0,0.6,0,0.9c9.5,5,10,9.9,1.7,16.5c0.1,0.6,0.2,1.2,0.4,1.7
	c10.3,2.8,11.7,7.4,4.8,15.4c0.2,0.5,0.5,1.1,0.7,1.6c10.5,0.6,12.8,4.8,7.6,13.8c0.3,0.5,0.7,1,1,1.5c10.3-1.4,13.3,2.2,9.9,12
	c0.4,0.4,0.9,0.9,1.4,1.3c9.7-3.3,13.3-0.4,12,9.8c0.6,0.4,1.1,0.7,1.7,1.1c8.8-5,12.9-2.8,13.6,7.3c0.7,0.3,1.3,0.5,2,0.8
	c0.5-0.4,1-0.8,1.5-1.2c-0.6-3.9-1.2-7.9-1.7-12.1C30.2,148.1,12,121.2,12,90.2C12,47,47,12,90.2,12c43.2,0,78.2,35,78.2,78.2
	c0,29.9-16.8,55.8-41.5,69c-0.4,3.1-0.8,6.2-1.2,9.2c0.1,1.5,0.2,3.1,0.1,4.6c0.4-0.2,0.9-0.4,1.3-0.6c0.8-9.2,4.7-11.4,12.8-7
	c0.8-0.5,1.6-1.1,2.3-1.6c-1-9,2.4-11.8,11-9.2c0.7-0.7,1.4-1.4,2.1-2.1c-2.6-8.5,0.1-11.9,9-11c0.6-0.8,1.1-1.7,1.7-2.5
	c-4.1-7.8-2.1-11.7,6.7-12.5c0.4-1,0.8-1.9,1.2-2.9c-5.5-6.9-4.2-11.1,4.2-13.8c0.2-1.1,0.4-2.1,0.6-3.2
	C172.1,100.8,172.6,96.3,180.3,91.9z"/>
<g id="beer">
	<g>
		<path class="st0" d="M55.1,39.9h7.1c3,0,5,0.7,6,2c1.1,1.3,1.6,3.6,1.6,6.8v0.8c0,2.3-0.2,4.1-0.6,5.5c-0.4,1.3-1.2,2.3-2.3,2.9
			c2.4,1,3.6,4.1,3.6,9.5v0.8c0,3.9-0.6,6.8-1.8,8.5c-1.1,1.7-3.1,2.6-6,2.6h-7.7V39.9z M65.3,48.8c0,0,0-0.1,0-0.1
			c0-2.6-0.5-4.2-1.4-4.6c-0.4-0.2-1.1-0.4-1.9-0.4h-2.3v12.6h2.6c0.9,0,1.5-0.1,1.9-0.4c0.4-0.3,0.7-0.9,0.8-1.7
			c0.2-0.9,0.2-2.3,0.2-4.2V48.8z M65.9,66.7c0-2.5-0.2-4.3-0.6-5.3c-0.4-1-1.2-1.5-2.5-1.5h-3.1v15.6h2.8c1.3,0,2.2-0.5,2.6-1.5
			c0.5-1,0.7-3,0.7-5.9V66.7z"/>
	</g>
	<g>
		<path class="st0" d="M76,39.9h11.8v3.8h-7.1v13.5h6.7v3.8h-6.7v14.3h7.2v3.8H76V39.9z"/>
	</g>
	<g>
		<path class="st0" d="M93.3,39.9H105v3.8h-7.1v13.5h6.7v3.8h-6.7v14.3h7.2v3.8H93.3V39.9z"/>
	</g>
	<g>
		<path class="st0" d="M110.5,39.9h8.2c2.3,0,4,0.5,5.1,1.5c1,1,1.6,2.6,1.9,4.9c0.1,1,0.1,2.4,0.1,4.5c0,2-0.3,3.7-0.8,5.1
			c-0.5,1.4-1.5,2.3-2.8,2.7c1,0.2,1.7,0.7,2.2,1.6c0.5,0.9,0.9,2.3,1.1,4.2c0.2,1.9,0.3,4.7,0.3,8.5c0,3.7,0.1,5.9,0.4,6.6h-4.6
			c-0.2-0.5-0.4-4.9-0.4-13.3c0-2.8-0.3-4.5-0.8-4.9c-0.6-0.5-1.4-0.7-2.5-0.7l-2.7-0.2v19h-4.6V39.9z M121.2,49.6
			c0-3-0.3-4.8-0.8-5.3c-0.5-0.5-1.3-0.7-2.4-0.7h-2.9v13.3h2.9c0.9,0,1.5-0.2,2-0.5c0.4-0.3,0.7-1,0.9-2c0.2-1,0.3-2.5,0.3-4.6
			V49.6z"/>
	</g>
</g>
<polygon id="lStar" class="st0" points="38.3,55.7 40.7,60.6 46.2,61.4 42.3,65.3 43.2,70.8 38.3,68.2 33.4,70.8 34.3,65.3 
	30.4,61.4 35.8,60.6 "/>
<polygon id="rStar" class="st0" points="141.8,55.7 144.3,60.6 149.8,61.4 145.8,65.3 146.7,70.8 141.8,68.2 136.9,70.8 137.9,65.3 
	133.9,61.4 139.4,60.6 "/>

<defs>
	<script>
		// stub
	</script>
</defs>
</svg>
