<?xml version="1.0" encoding="utf-8"?>
<!-- Generator: Adobe Illustrator 22.1.0, SVG Export Plug-In . SVG Version: 6.00 Build 0)  -->
<svg version="1.1" id="qualtyBeer" xmlns="http://www.w3.org/2000/svg" xmlns:xlink="http://www.w3.org/1999/xlink" x="0px" y="0px"
	 viewBox="0 0 194.2 128.9" style="enable-background:new 0 0 194.2 128.9;" xml:space="preserve">
<style type="text/css">
	.st0{fill:#FFFFFF;}
</style>
<path id="lgrain" class="st0" d="M3.8,64.6c0,0,2.8-8.8,10.1-6.7C13.8,57.9,12.6,65.6,3.8,64.6z M2.8,52.6c-5.3,5.4,1,12,1,12
	C9,57.4,2.8,52.6,2.8,52.6z M17.7,50.3c-7.2-2.5-10.4,6.2-10.4,6.2C16,57.9,17.7,50.3,17.7,50.3z M6.9,44.4
	c-5.6,5.1,0.4,12.1,0.4,12.1C12.8,49.5,6.9,44.4,6.9,44.4z M22.6,44.5c-6.5-3.9-11.4,3.9-11.4,3.9C19.4,51.6,22.6,44.5,22.6,44.5z
	 M12.7,36.2c-6.3,4.2-1.5,12-1.5,12C17.7,42.2,12.7,36.2,12.7,36.2z M28.3,39.2c-5.8-4.8-11.9,2.1-11.9,2.1
	C24,45.8,28.3,39.2,28.3,39.2z M19.2,29.6c-6.7,3.5-2.8,11.8-2.8,11.8C23.6,36.1,19.2,29.6,19.2,29.6z M34.9,34.2
	c-5.1-5.6-12.1,0.4-12.1,0.4C29.7,40.1,34.9,34.2,34.9,34.2z M28.3,23.8c-7.4,1.8-5.5,10.8-5.5,10.8C31,31.2,28.3,23.8,28.3,23.8z
	 M42.5,31.9c-3.9-6.5-11.9-2-11.9-2C36.3,36.6,42.5,31.9,42.5,31.9z M37.3,19.8c-7.5,0.9-6.6,10.1-6.6,10.1
	C39.2,27.4,37.3,19.8,37.3,19.8z M48.4,23.8C42.1,19.5,36.8,27,36.8,27C44.8,30.8,48.4,23.8,48.4,23.8z"/>
<path id="rgrain" class="st0" d="M190.1,65C190.1,65,190.1,65,190.1,65C190.1,65,190.1,65,190.1,65C190.1,65,190.1,65,190.1,65
	c-8.8,1-10.1-6.7-10.1-6.7c4.1-1.2,6.7,1.1,8.3,3.3c-1.5-5.3,2.8-8.6,2.8-8.6C196.2,58.1,190.6,64.4,190.1,65
	C190.1,65,190.1,65,190.1,65z M186.6,56.8C186.6,56.8,186.6,56.9,186.6,56.8C186.6,56.9,186.6,56.8,186.6,56.8
	C186.6,56.8,186.6,56.8,186.6,56.8C186.6,56.8,186.6,56.8,186.6,56.8c0.5-0.6,5.8-7.2,0.4-12c0,0-4.1,3.5-2.3,8.7
	c-1.7-2.1-4.4-4.2-8.4-2.8C176.2,50.7,177.9,58.3,186.6,56.8z M182.7,48.7c0,0,4.8-8-1.5-12.1c0,0-4,4.7-0.3,10
	c-2-2-5.5-4.2-9.6-1.7C171.3,44.9,174.5,52,182.7,48.7z M177.4,41.8C177.4,41.8,177.4,41.8,177.4,41.8
	C177.5,41.8,177.5,41.8,177.4,41.8C177.5,41.7,177.5,41.7,177.4,41.8C177.5,41.7,177.5,41.7,177.4,41.8c0.4-0.9,3.6-8.5-2.7-11.7
	c0,0-3.4,5,0.6,9.8c-2.3-1.6-6.1-3.3-9.7-0.2C165.6,39.6,169.8,46.2,177.4,41.8z M171.1,35C171.1,35,171.1,35,171.1,35
	C171.1,35,171.1,35,171.1,35C171.1,34.9,171.1,34.9,171.1,35c0.1-0.6,1.7-9.1-5.5-10.8c0,0-1.9,5.1,2.2,8.7c-2.5-1-5.9-1.5-8.8,1.6
	C159,34.6,164.1,40.5,171.1,35C171,35,171.1,35,171.1,35z M163.3,30.2C163.3,30.2,163.3,30.2,163.3,30.2c0-1.1,0.3-9.1-6.7-10
	c0,0-1.4,5.8,3.8,8.9c-2.7-0.7-6.7-0.9-9,3.1C151.4,32.3,157.6,37,163.3,30.2z M157.1,27.4c0,0-5.4-7.5-11.6-3.2
	C145.5,24.2,149.1,31.2,157.1,27.4z"/>
<path id="banner" class="st0" d="M16.7,76.1c-7-3.1-11.8-5.9-14.2-7.3l13.2-1.1L16.7,76.1z M178.4,67.5l-0.9,7.4
	c4.6-1.9,9.2-4,13.7-6.3L178.4,67.5z M172.6,110.9c10.6-3.8,17.4-8.3,21.6-11.7l0-1c-12.6,7.8-24.4,9.1-24.4,9.1
	c12.5-4.5,20.2-9.9,24.4-13.4v-0.2c-13.5,9-28.6,11.2-28.6,11.2c13.6-4.9,23.6-11.9,28.6-15.8V89c-14,9.2-31.9,12.4-31.9,12.4
	c12.4-4.5,22.5-10.4,28.3-14.3c-13,7.6-27.2,10.6-27.2,10.6c14.4-5.2,25.7-12.7,30.9-16.5V81c-13.6,9.3-29,13-29,13
	c15.2-5.5,25.1-13.5,29-17.1l0-0.2c-13.4,9.3-27.5,13.2-27.5,13.2c14.2-6,23.7-13.8,27.5-17.3v0c-13.2,9.2-25.7,12.7-25.7,12.7
	c9.9-4.4,17.1-9.4,21.7-13.1c-9.5,6.1-17.3,8.8-17.3,8.8c5.2-2.7,9.5-5.5,13.1-8.1C94.5,114.9,23.8,82.5,5,72c4,3.1,9,6.5,15.2,9.7
	c0,0-7.8-2.7-17.3-8.8c4.6,3.7,11.7,8.8,21.7,13.1c0,0-11.8-3.3-24.6-11.9v0.2C4.4,78.1,13.4,85,26.3,90.6c0,0-13.3-3.7-26.3-12.4
	v0.5c4.5,3.9,14,11,27.9,16.1c0,0-14.6-3.5-27.9-12.2v0.2c5.6,4,16.3,10.8,29.7,15.7c0,0-14.2-3-27.2-10.6
	c5.8,3.9,15.8,9.8,28.3,14.3c0,0-17-3-30.8-11.6v0.2c5.3,4.1,14.8,10.4,27.4,14.9c0,0-14.2-2-27.4-10.4v0.4
	c4.3,3.4,11.8,8.3,23.2,12.4c0,0-11.1-1.2-23.2-8.4v1.2c4.2,3.3,10.8,7.3,20.4,10.8c0,0-8.4-1.1-18.9-6.7
	c11.4,7,85.1,47.9,182.8,3.7c3.2-1.7,5.8-3.4,8.1-4.9C181.6,109.7,172.6,110.9,172.6,110.9z"/>
<g id="beerText">
	<g>
		<path d="M40.8,108.1c-0.2,0.7-1.3,1.5-1.3,1.7c0,0.1,0.5,0.6,1,0.8c-0.3,0.9-0.5,1.4-0.8,2.3c-1.5-0.5-2.4-2.1-2.7-2.3
			c-0.2-0.2-1.6-0.1-2.4-0.4c-1.3-0.5-2.3-1.3-2.9-2.5c-0.6-1.1-0.7-2.2-0.2-3.2c1.5-3.4,2.2-5.2,3.6-8.6c0.4-1,1.2-1.8,2.4-2.1
			c1.1-0.4,2.3-0.4,3.5,0.1c1.2,0.5,2.1,1.2,2.6,2.3s0.7,2.1,0.3,3.2C42.6,102.8,42,104.5,40.8,108.1z M41,98.1
			c0.1-0.4,0.1-0.8-0.1-1.2c-0.2-0.4-0.5-0.7-1-0.8c-0.4-0.2-0.9-0.2-1.3,0c-0.4,0.1-0.7,0.4-0.8,0.8c-1.4,3.5-2.1,5.2-3.5,8.7
			c-0.2,0.4-0.1,0.8,0.1,1.2c0.2,0.4,0.6,0.7,1,0.9c0.5,0.2,0.9,0.2,1.4,0.1c0.4-0.1,0.7-0.4,0.9-0.8C39,103.4,39.7,101.7,41,98.1z"
			/>
		<path d="M46.9,114.3c-1.4-0.4-2.4-1.2-3.1-2.2c-0.7-1.1-0.8-2.1-0.5-3.2c1.7-5,2.5-7.5,4.2-12.6c1.1,0.4,1.6,0.5,2.7,0.9
			c-1.6,5-2.4,7.6-3.9,12.6c-0.1,0.4-0.1,0.8,0.2,1.2c0.3,0.4,0.6,0.6,1.1,0.8c0.5,0.1,0.9,0.1,1.4,0c0.4-0.2,0.7-0.5,0.8-0.9
			c1.5-5.1,2.2-7.6,3.6-12.7c1.2,0.3,1.7,0.5,2.9,0.8c-1.4,5.1-2,7.7-3.4,12.8c-0.3,1.1-1,1.9-2.2,2.4
			C49.5,114.7,48.3,114.7,46.9,114.3z"/>
		<path d="M58.9,113.2c-0.6,1.5-1,2.2-1.6,3.7c-1.3-0.3-2-0.5-3.3-0.8c3.1-6.3,4.5-9.5,7.3-15.8c1.5,0.4,2.3,0.5,3.9,0.8
			c-0.1,7-0.1,10.4,0.1,17.4c-1.3-0.2-2-0.4-3.3-0.6c0-1.6,0-2.4,0-4C60.8,113.6,60.2,113.5,58.9,113.2z M62.4,104.5
			c-1,2.5-1.5,3.8-2.5,6.4c0.9,0.2,1.3,0.3,2.2,0.5C62.2,108.6,62.3,107.2,62.4,104.5z"/>
		<path d="M76.6,120.1c-3.5-0.4-5.2-0.6-8.6-1.1c1.1-6.8,1.6-10.1,2.7-16.9c1.1,0.2,1.7,0.3,2.8,0.4c-0.8,5.8-1.2,8.6-2,14.4
			c2.1,0.3,3.2,0.4,5.4,0.7C76.8,118.6,76.7,119.1,76.6,120.1z"/>
		<path d="M82,120.6c-1.3-0.1-1.9-0.1-3.2-0.3c0.6-6.8,0.9-10.2,1.6-17c1.1,0.1,1.7,0.2,2.8,0.2C82.7,110.4,82.5,113.8,82,120.6z"/>
		<path d="M88.5,106.4c-1.2,0-1.9-0.1-3.1-0.1c0.1-1,0.1-1.6,0.1-2.6c3.6,0.2,5.3,0.3,8.9,0.2c0,1,0,1.6,0,2.6c-1.2,0-1.8,0-3.1,0
			c-0.1,5.8-0.2,8.7-0.2,14.5c-1.3,0-1.9,0-3.2-0.1C88.1,115.1,88.3,112.2,88.5,106.4z"/>
		<path d="M100.6,113.7c-1.8-3.9-2.6-5.9-4.2-9.8c1.3,0,1.9,0,3.1-0.1c0.9,2.4,1.4,3.6,2.4,6c0.7-2.5,1.1-3.8,1.8-6.3
			c1.3-0.1,1.9-0.1,3.1-0.2c-1.2,4.1-1.8,6.1-3.2,10.2c0.2,2.9,0.3,4.3,0.4,7.2c-1.3,0.1-1.9,0.1-3.2,0.2
			C100.8,118,100.8,116.6,100.6,113.7z"/>
		<path d="M114.9,119.7c-0.9-6.8-1.3-10.2-2.2-17c1.7-0.2,2.5-0.3,4.2-0.6c1.1-0.2,2.2-0.1,3.2,0.3c0.8,0.3,1.5,0.9,2,1.8
			c0.3,0.5,0.5,1,0.6,1.7c0.2,1.1,0.1,2.1-0.5,2.9c-0.2,0.3-0.9,0.8-0.9,0.8c0,0,1.3,0.4,1.9,1c0.4,0.4,0.7,0.9,1,1.5
			c0.1,0.3,0.3,0.7,0.3,1.1c0.2,1.1,0.1,2-0.2,2.8c-0.3,0.7-0.7,1.2-1.4,1.7c-0.7,0.5-1.5,0.9-2.3,1
			C118.5,119.2,117.3,119.4,114.9,119.7z M116.8,109.2c0.5-0.1,0.7-0.1,1.2-0.2c0.9-0.1,1.5-0.6,1.7-1.5c0.1-0.3,0.1-0.7,0-1.1
			c-0.1-0.7-0.4-1.2-0.9-1.5c-0.4-0.3-0.9-0.4-1.5-0.3c-0.5,0.1-0.7,0.1-1.2,0.2C116.5,106.6,116.6,107.5,116.8,109.2z M118,116.7
			c0.5-0.1,0.8-0.1,1.3-0.2c1.1-0.2,1.7-0.7,2-1.7c0.1-0.3,0.1-0.7,0-1.1c-0.2-0.9-0.5-1.6-1-1.9c-0.5-0.3-1-0.4-1.8-0.3
			c-0.5,0.1-0.8,0.1-1.3,0.2C117.5,113.7,117.7,114.7,118,116.7z"/>
		<path d="M128.3,117.4c-1.4-6.7-2.2-10-3.6-16.7c3.2-0.7,4.8-1.1,7.9-1.9c0.3,1,0.4,1.5,0.7,2.5c-2.1,0.6-3.1,0.8-5.2,1.3
			c0.4,1.8,0.6,2.7,1.1,4.5c1.6-0.4,2.4-0.6,3.9-1c0.3,1,0.4,1.5,0.7,2.5c-1.6,0.4-2.4,0.6-4,1c0.4,1.8,0.6,2.7,1.1,4.5
			c2.3-0.5,3.4-0.8,5.7-1.4c0.3,1,0.4,1.5,0.7,2.5C133.6,116.2,131.8,116.6,128.3,117.4z"/>
		<path d="M139.3,114.6c-1.9-6.6-2.8-9.9-4.7-16.5c3.2-0.9,4.7-1.4,7.8-2.5c0.3,1,0.5,1.5,0.9,2.5c-2.1,0.7-3.1,1.1-5.2,1.7
			c0.6,1.8,0.8,2.7,1.4,4.5c1.6-0.5,2.3-0.7,3.9-1.3c0.3,1,0.5,1.5,0.8,2.5c-1.6,0.5-2.4,0.8-4,1.3c0.6,1.8,0.8,2.7,1.4,4.5
			c2.2-0.7,3.4-1.1,5.6-1.8c0.3,1,0.5,1.5,0.9,2.4C144.5,113.1,142.8,113.6,139.3,114.6z"/>
		<path d="M148.5,93.4c1.5-0.6,2.7-0.7,3.8-0.3c0.9,0.4,1.6,1.1,2.1,2.3c0.4,0.9,0.6,1.4,1,2.3c0.5,1.1,0.4,2.3-0.3,3.5
			c2,2.4,3,3.6,5.1,5.9c-1.3,0.6-1.9,0.8-3.2,1.4c-1.7-2.1-2.6-3.1-4.2-5.2c-0.1,0-0.2,0.1-0.3,0.1c-0.7,0.3-1,0.4-1.7,0.7
			c0.9,2.4,1.4,3.6,2.3,6c-1.2,0.5-1.8,0.7-3,1.1c-2.3-6.4-3.5-9.6-5.9-16.1C146,94.4,146.8,94.1,148.5,93.4z M151.7,96.6
			c-0.4-0.9-1.1-1.2-2.1-0.7c-0.7,0.3-1,0.4-1.7,0.7c0.8,2,1.2,3.1,2,5.1c0.7-0.3,1-0.4,1.7-0.7c0.5-0.2,0.8-0.5,1-0.9
			c0.2-0.4,0.2-0.8,0.1-1.2C152.3,98,152.1,97.5,151.7,96.6z"/>
	</g>
</g>
<path id="cGlass" class="st0" d="M100.4,71.2c0.6,5.3,0,7.8,6.9,9.8c6.9,2,14.8,4.6,6.3,6.2c-4.3,0.8-10,1.4-15.7,1.6v0
	c0,0,0,0-0.1,0c0,0,0,0-0.1,0v0c-5.7-0.2-11.4-0.8-15.7-1.6c-8.5-1.6-0.6-4.2,6.3-6.2c6.9-2,6.3-4.5,6.9-9.8
	c0.6-5.3-1.3-5.4-4.5-7.3c-3.2-1.8-10.6-3.4-14.3-15.7C72.9,35.8,80.3,0,80.3,0l17.6,0.1L115.5,0c0,0,7.4,35.8,3.7,48.2
	c-3.7,12.4-11.1,13.9-14.3,15.7C101.7,65.7,99.9,65.8,100.4,71.2z M113.3,85.4c0.3-0.1,0.6-0.1,0.8-0.2c-1.5-0.6-3.9-1.5-7.3-2.4
	c-7-2.1-7.6-4.9-8-9.9c0-0.5-0.1-1-0.1-1.5c-0.6-5.4,1.2-6.8,4.2-8.4c0.4-0.2,0.8-0.4,1.2-0.7c0.6-0.3,1.2-0.6,1.9-0.9
	c3.4-1.6,8.7-4.1,11.6-13.7c3.1-10.4-2.1-38.9-3.5-45.8L97.9,2l-16-0.1c-1.3,6.8-6.6,35.4-3.5,45.8c2.9,9.7,8.1,12.1,11.6,13.7
	c0.7,0.3,1.3,0.6,1.9,0.9c0.4,0.2,0.8,0.5,1.2,0.7c3,1.6,4.7,2.9,4.2,8.4c-0.1,0.5-0.1,1.1-0.1,1.5c-0.4,4.9-1,7.8-8,9.9
	c-3.4,1-5.8,1.8-7.3,2.4c0.2,0.1,0.5,0.1,0.8,0.2c4.5,0.8,10.1,1.4,15.4,1.6C103.1,86.8,108.7,86.2,113.3,85.4z M83.5,25.9
	c0.3,0,0.6-0.3,0.6-0.6c0-0.3-0.3-0.6-0.6-0.6c-0.3,0-0.6,0.3-0.6,0.6C82.9,25.6,83.2,25.9,83.5,25.9z M86.4,32.5
	c-0.3,0-0.6,0.3-0.6,0.6c0,0.3,0.3,0.6,0.6,0.6c0.3,0,0.6-0.3,0.6-0.6C87,32.7,86.7,32.5,86.4,32.5z M83.4,30.9
	c-0.5,0-0.9,0.4-0.9,0.9c0,0.5,0.4,0.9,0.9,0.9c0.5,0,0.9-0.4,0.9-0.9C84.3,31.3,83.9,30.9,83.4,30.9z M86.7,27.9
	c-0.7,0-1.3,0.6-1.3,1.3s0.6,1.3,1.3,1.3s1.3-0.6,1.3-1.3S87.4,27.9,86.7,27.9z M115,35.3H82.3c-0.2,7.5,5.6,18.8,5.6,18.8
	c-8.5-11.5-7.5-25.9-7.5-25.9l0,0c-0.1-3.5,0.3-6.7,1.1-9.9c0.1-0.3,0.5-1.4,0.9-1.9c0.6-0.8,1.6-2,2.2-2.4c0.8-3.8,4.1-6.7,8.1-6.7
	c2.4,0,4.5,1,6,2.6c1.1-0.8,2.5-1.4,4-1.4c2.9,0,5.3,1.8,6.2,4.4c0.4-0.1,0.8-0.2,1.2-0.2c2,0,3.6,1.3,4.1,3.2
	c0.1,0.4,0.2,1.5,0.4,2.3C115.2,21.4,116.8,30.6,115,35.3z M82.7,25.3c0,0.5,0.4,0.8,0.8,0.8c0.5,0,0.8-0.4,0.8-0.8
	c0-0.5-0.4-0.8-0.8-0.8C83.1,24.5,82.7,24.8,82.7,25.3z M84.7,31.8c0-0.7-0.6-1.3-1.3-1.3c-0.7,0-1.3,0.6-1.3,1.3
	c0,0.7,0.6,1.3,1.3,1.3C84.1,33.1,84.7,32.5,84.7,31.8z M87.2,33c0-0.5-0.4-0.8-0.8-0.8c-0.5,0-0.8,0.4-0.8,0.8
	c0,0.5,0.4,0.8,0.8,0.8C86.9,33.9,87.2,33.5,87.2,33z M88.6,29.2c0-1.1-0.9-1.9-1.9-1.9c-1.1,0-1.9,0.9-1.9,1.9s0.9,1.9,1.9,1.9
	C87.8,31.1,88.6,30.3,88.6,29.2z M90.3,23.4c0-1.5-1.2-2.7-2.7-2.7c-1.5,0-2.7,1.2-2.7,2.7c0,1.5,1.2,2.7,2.7,2.7
	C89.1,26.1,90.3,24.9,90.3,23.4z M87.6,21.6c-1,0-1.8,0.8-1.8,1.8s0.8,1.8,1.8,1.8s1.8-0.8,1.8-1.8S88.6,21.6,87.6,21.6z"/>
<path id="lGlass" class="st0" d="M55.6,71.7c0.2,2.4,0,3.4,3,4.3c3,0.9,6.5,2,2.8,2.7c-1.9,0.3-4.4,0.6-6.9,0.7v0c0,0,0,0,0,0
	c0,0,0,0,0,0v0c-2.5-0.1-5-0.4-6.9-0.7c-3.8-0.7-0.2-1.8,2.8-2.7c3-0.9,2.8-2,3-4.3c0.2-2.4-0.6-2.4-2-3.2c-1.4-0.8-4.7-1.5-6.3-6.9
	c-1.6-5.5,1.6-21.3,1.6-21.3l7.8,0.1l7.8-0.1c0,0,3.3,15.8,1.6,21.3c-1.6,5.5-4.9,6.1-6.3,6.9C56.2,69.3,55.4,69.4,55.6,71.7z
	 M61.3,78c0.1,0,0.3,0,0.4-0.1c-0.7-0.3-1.7-0.6-3.2-1.1c-3.1-0.9-3.4-2.2-3.5-4.4c0-0.2,0-0.4-0.1-0.7c-0.3-2.4,0.5-3,1.8-3.7
	c0.2-0.1,0.3-0.2,0.5-0.3c0.2-0.1,0.5-0.3,0.8-0.4c1.5-0.7,3.8-1.8,5.1-6.1c1.4-4.6-0.9-17.2-1.5-20.2l-7.1,0.1l-7.1-0.1
	c-0.6,3-2.9,15.6-1.5,20.2c1.3,4.3,3.6,5.3,5.1,6.1c0.3,0.1,0.6,0.3,0.8,0.4c0.2,0.1,0.4,0.2,0.5,0.3c1.3,0.7,2.1,1.3,1.8,3.7
	c0,0.2,0,0.5-0.1,0.7c-0.2,2.2-0.4,3.4-3.5,4.4c-1.5,0.4-2.6,0.8-3.2,1.1c0.1,0,0.2,0,0.4,0.1c2,0.4,4.5,0.6,6.8,0.7
	C56.8,78.6,59.3,78.4,61.3,78z M50.3,53.8c-0.1,0-0.3,0.1-0.3,0.3c0,0.1,0.1,0.3,0.3,0.3c0.1,0,0.3-0.1,0.3-0.3
	C50.5,53.9,50.4,53.8,50.3,53.8z M49,50.8c0.1,0,0.3-0.1,0.3-0.3c0-0.1-0.1-0.3-0.3-0.3c-0.1,0-0.3,0.1-0.3,0.3
	C48.7,50.7,48.8,50.8,49,50.8z M48.9,53.1c-0.2,0-0.4,0.2-0.4,0.4c0,0.2,0.2,0.4,0.4,0.4c0.2,0,0.4-0.2,0.4-0.4
	C49.3,53.3,49.1,53.1,48.9,53.1z M50.4,51.7c-0.3,0-0.6,0.3-0.6,0.6c0,0.3,0.3,0.6,0.6,0.6c0.3,0,0.6-0.3,0.6-0.6
	C51,52,50.7,51.7,50.4,51.7z M50.8,48.8c-0.5,0-0.8,0.4-0.8,0.8c0,0.5,0.4,0.8,0.8,0.8c0.5,0,0.8-0.4,0.8-0.8
	C51.6,49.2,51.3,48.8,50.8,48.8z M62.1,55.9H47.6c-0.1,3.3,2.5,8.3,2.5,8.3c-3.8-5.1-3.3-11.4-3.3-11.4v0c0-1.6,0.1-2.9,0.5-4.4
	c0-0.1,0.2-0.6,0.4-0.8c0.3-0.4,0.7-0.9,1-1.1c0.3-1.7,1.8-2.9,3.6-2.9c1,0,2,0.4,2.7,1.1c0.5-0.4,1.1-0.6,1.8-0.6
	c1.3,0,2.3,0.8,2.7,1.9c0.2-0.1,0.4-0.1,0.5-0.1c0.9,0,1.6,0.6,1.8,1.4c0,0.2,0.1,0.7,0.2,1C62.2,49.8,62.8,53.8,62.1,55.9z
	 M48.6,50.5c0,0.2,0.2,0.4,0.4,0.4c0.2,0,0.4-0.2,0.4-0.4c0-0.2-0.2-0.4-0.4-0.4C48.8,50.2,48.6,50.3,48.6,50.5z M49.5,53.5
	c0-0.3-0.3-0.6-0.6-0.6c-0.3,0-0.6,0.3-0.6,0.6c0,0.3,0.3,0.6,0.6,0.6C49.2,54.1,49.5,53.8,49.5,53.5z M50.6,54
	c0-0.2-0.2-0.4-0.4-0.4c-0.2,0-0.4,0.2-0.4,0.4c0,0.2,0.2,0.4,0.4,0.4C50.5,54.4,50.6,54.3,50.6,54z M51.3,52.3
	c0-0.5-0.4-0.9-0.9-0.9s-0.9,0.4-0.9,0.9c0,0.5,0.4,0.9,0.9,0.9S51.3,52.8,51.3,52.3z M52,49.7c0-0.7-0.5-1.2-1.2-1.2
	c-0.7,0-1.2,0.5-1.2,1.2c0,0.7,0.5,1.2,1.2,1.2C51.5,50.9,52,50.4,52,49.7z"/>
<path id="rGlass" class="st0" d="M142.7,71.7c0.2,2.4,0,3.4,3,4.3c3,0.9,6.5,2,2.8,2.7c-1.9,0.3-4.4,0.6-6.9,0.7v0c0,0,0,0,0,0
	c0,0,0,0,0,0v0c-2.5-0.1-5-0.4-6.9-0.7c-3.8-0.7-0.2-1.8,2.8-2.7c3-0.9,2.8-2,3-4.3c0.2-2.4-0.6-2.4-2-3.2c-1.4-0.8-4.7-1.5-6.3-6.9
	c-1.6-5.5,1.6-21.3,1.6-21.3l7.8,0.1l7.8-0.1c0,0,3.3,15.8,1.6,21.3c-1.6,5.5-4.9,6.1-6.3,6.9C143.3,69.3,142.5,69.4,142.7,71.7z
	 M148.4,78c0.1,0,0.3,0,0.4-0.1c-0.7-0.3-1.7-0.6-3.2-1.1c-3.1-0.9-3.4-2.2-3.5-4.4c0-0.2,0-0.4-0.1-0.7c-0.3-2.4,0.5-3,1.8-3.7
	c0.2-0.1,0.3-0.2,0.5-0.3c0.2-0.1,0.5-0.3,0.8-0.4c1.5-0.7,3.8-1.8,5.1-6.1c1.4-4.6-0.9-17.2-1.5-20.2l-7.1,0.1l-7.1-0.1
	c-0.6,3-2.9,15.6-1.5,20.2c1.3,4.3,3.6,5.3,5.1,6.1c0.3,0.1,0.6,0.3,0.8,0.4c0.2,0.1,0.4,0.2,0.5,0.3c1.3,0.7,2.1,1.3,1.8,3.7
	c0,0.2,0,0.5-0.1,0.7c-0.2,2.2-0.4,3.4-3.5,4.4c-1.5,0.4-2.6,0.8-3.2,1.1c0.1,0,0.2,0,0.4,0.1c2,0.4,4.5,0.6,6.8,0.7
	C143.9,78.6,146.4,78.4,148.4,78z M136.9,52c-0.3,0-0.6,0.3-0.6,0.6s0.3,0.6,0.6,0.6c0.3,0,0.6-0.3,0.6-0.6S137.2,52,136.9,52z
	 M136.7,54.1c-0.1,0-0.3,0.1-0.3,0.3c0,0.1,0.1,0.3,0.3,0.3c0.1,0,0.3-0.1,0.3-0.3C137,54.2,136.9,54.1,136.7,54.1z M135.4,53.4
	c-0.2,0-0.4,0.2-0.4,0.4c0,0.2,0.2,0.4,0.4,0.4c0.2,0,0.4-0.2,0.4-0.4C135.8,53.6,135.6,53.4,135.4,53.4z M135.4,51.1
	c0.1,0,0.3-0.1,0.3-0.3c0-0.1-0.1-0.3-0.3-0.3c-0.1,0-0.3,0.1-0.3,0.3C135.1,51,135.3,51.1,135.4,51.1z M149.2,55.9h-14.5
	c-0.1,3.3,2.5,8.3,2.5,8.3c-3.8-5.1-3.3-11.4-3.3-11.4v0c0-1.6,0.1-2.9,0.5-4.4c0-0.1,0.2-0.6,0.4-0.8c0.3-0.4,0.7-0.9,1-1.1
	c0.3-1.7,1.8-2.9,3.6-2.9c1,0,2,0.4,2.7,1.1c0.5-0.4,1.1-0.6,1.8-0.6c1.3,0,2.3,0.8,2.7,1.9c0.2-0.1,0.4-0.1,0.5-0.1
	c0.9,0,1.6,0.6,1.8,1.4c0,0.2,0.1,0.7,0.2,1C149.3,49.8,149.9,53.8,149.2,55.9z M135,50.8c0,0.2,0.2,0.4,0.4,0.4
	c0.2,0,0.4-0.2,0.4-0.4c0-0.2-0.2-0.4-0.4-0.4C135.2,50.5,135,50.6,135,50.8z M135.9,53.8c0-0.3-0.3-0.6-0.6-0.6
	c-0.3,0-0.6,0.3-0.6,0.6c0,0.3,0.3,0.6,0.6,0.6C135.7,54.4,135.9,54.1,135.9,53.8z M137.1,54.3c0-0.2-0.2-0.4-0.4-0.4
	c-0.2,0-0.4,0.2-0.4,0.4s0.2,0.4,0.4,0.4C136.9,54.7,137.1,54.6,137.1,54.3z M137.7,52.6c0-0.5-0.4-0.9-0.9-0.9
	c-0.5,0-0.9,0.4-0.9,0.9s0.4,0.9,0.9,0.9C137.3,53.5,137.7,53.1,137.7,52.6z M138.5,50c0-0.7-0.5-1.2-1.2-1.2
	c-0.7,0-1.2,0.5-1.2,1.2c0,0.7,0.5,1.2,1.2,1.2C137.9,51.2,138.5,50.6,138.5,50z M137.3,49.1c-0.5,0-0.8,0.4-0.8,0.8
	c0,0.5,0.4,0.8,0.8,0.8c0.5,0,0.8-0.4,0.8-0.8C138.1,49.5,137.7,49.1,137.3,49.1z"/>
</svg>
